<svg width="180" height="134" viewBox="0 0 180 134" fill="none" xmlns="http://www.w3.org/2000/svg">
<g clip-path="url(#clip0_2_215)">
<path d="M76.989 2.00854C81.3538 -1.36348 105.698 -17.8557 110.125 -20.3694C113.874 -22.454 114.735 -23.2504 115.534 -25.3349C117.686 -31.0369 121.005 -49.6754 122.297 -63.4087C122.973 -70.2141 118.669 -73.8923 113.321 -71.0107C112.153 -70.3976 108.833 -68.7423 105.944 -67.3322C103.054 -65.9833 94.6939 -60.7107 87.3169 -55.6833C70.78 -44.3411 71.2718 -49.9815 68.4439 -21.6563C67.8292 -15.0962 62.9726 12.8603 76.989 2.00854ZM79.5095 -36.3098C79.5095 -38.2717 81.5997 -39.9881 94.8784 -48.9393C101.456 -53.4149 107.85 -57.8296 109.018 -58.8105C111.907 -61.1403 112.03 -61.0787 111.415 -57.3388C108.157 -37.5358 105.944 -32.5695 103.792 -26.745C90.1448 -19.8171 74.7759 -8.29146 74.2226 -8.598C73.9767 -8.96586 79.5095 -31.2211 79.5095 -36.3098Z" fill="#162E3C"/>
<path d="M71.3946 66.9363C76.0053 66.9363 105.882 40.2661 108.71 38.2434C114.551 34.0744 121.805 1.08934 117.317 -0.995179C115.472 -1.85351 115.841 -1.91482 111.415 -0.81125C109.51 -0.320774 101.579 3.23518 93.7717 7.15899C76.0053 16.0489 77.8496 13.0447 75.7594 18.3173C70.2881 32.0507 66.784 59.0877 65.3701 61.3556C63.9561 63.3793 67.8291 66.9363 71.3946 66.9363ZM76.6815 46.7041C79.0791 39.1626 81.5996 28.6173 83.3824 21.3828C105.821 11.2667 109.633 8.38459 109.633 9.67209C109.633 11.2048 107.235 14.4548 104.407 33.9517C99.12 37.2007 88.0545 43.6985 81.1078 48.9103C73.7922 54.3663 74.2225 54.5517 76.6815 46.7041Z" fill="#162E3C"/>
<path d="M52.6447 25.7967C47.5423 17.1521 38.7514 26.2875 37.5219 27.2076C23.813 37.5076 18.1571 44.0673 10.903 50.3826C7.15304 53.6933 9.24327 52.7732 3.58753 72.7601C-2.68296 94.9542 0.821141 99.6755 18.649 86.2482C29.7145 77.9101 30.3292 78.0327 42.5013 69.3268C47.7267 65.6482 47.1734 61.9078 50.0013 51.8531C53.3824 39.8982 54.489 28.8625 52.6447 25.7967ZM36.7841 61.541C36.1079 65.7708 30.2063 65.403 19.0178 73.3732C10.903 79.1981 14.7761 76.99 16.8048 61.1721L17.5425 55.41C38.444 38.7946 43.239 32.8481 43.239 35.0552C43.239 35.0552 37.2759 58.4755 36.7841 61.541Z" fill="#162E3C"/>
<path d="M169.018 -46.6098C159.612 -40.8467 135.207 -22.5763 132.931 -20.6144C131.026 -19.0203 129.182 -17.6715 128.874 -17.6715C126.6 -17.6715 128.321 -9.02689 126.6 5.44216C123.956 27.8816 125.37 32.9698 147.808 19.6653C151.866 17.2742 157.952 14.332 161.456 13.0445C172.092 9.12073 171.354 9.85644 171.784 3.7868C171.969 0.905251 173.075 -4.98046 174.12 -9.39475C176.641 -19.5721 178.608 -30.9148 179.223 -37.9654C180.145 -47.9588 175.104 -50.3497 169.018 -46.6098ZM168.034 -28.5846C166.19 -19.0203 161.395 0.352779 161.149 2.49861C160.841 5.0123 151.743 7.09682 139.879 13.8409C133.731 17.3355 134.223 17.888 135.513 8.99811C136.805 0.353466 137.604 -8.16856 138.157 -13.993C138.157 -13.993 161.333 -30.24 164.038 -32.2632C170.002 -36.7388 169.633 -36.984 168.034 -28.5846Z" fill="#162E3C"/>
<path d="M145.903 29.1685C132.133 37.8745 123.526 43.6376 122.788 43.6376C120.575 43.6376 113.567 75.3959 114.305 81.9565C114.551 83.9792 115.104 89.6197 115.104 89.9876C115.78 95.0768 129.858 88.3317 149.899 73.1888C155.493 68.9579 156.231 68.5901 158.567 68.7137C162.317 68.8971 163.362 66.8744 164.715 57.1257C169.202 23.9572 164.715 17.2745 145.903 29.1685ZM153.649 63.0114C153.587 63.0722 149.715 65.0959 144.981 67.6101C127.767 76.6221 122.788 81.4042 123.341 79.0745C123.649 77.8483 126.231 59.7007 127.153 52.4662C127.399 50.6887 127.829 49.7685 128.813 49.2781C129.551 48.9102 155.985 33.4602 155.985 33.4602C156.046 33.522 154.817 63.0114 153.649 63.0114Z" fill="#162E3C"/>
<path d="M99.7967 57.7997C97.3374 59.333 84.6735 68.4068 77.3579 73.9246C66.5382 82.0783 65.0013 84.409 61.4357 98.2032C60.2677 102.74 58.6079 108.688 57.7472 111.385C50.3702 134.744 58.4849 135.785 63.7103 132.291C67.3989 129.777 89.3456 111.508 94.1407 106.971C97.7062 103.538 98.936 102.74 100.104 102.985C103.854 103.721 105.145 100.533 107.481 84.4699C109.387 71.2878 111.169 50.7496 99.7967 57.7997ZM100.043 70.1852C99.4278 74.2925 96.1079 93.9733 96.1079 95.8734C96.1079 96.9162 65.8005 117.945 66.2923 116.106C70.8415 98.2032 70.1038 86.5544 72.1325 86.5544C73.1775 86.5544 75.7595 84.8377 90.821 74.109C101.456 66.5067 100.534 66.8745 100.043 70.1852Z" fill="#162E3C"/>
<path d="M15.9441 29.9661C18.2802 28.7399 24.6122 22.9153 33.0956 16.11C54.4275 -1.118 55.3497 -2.3436 58.5464 -18.2841C62.0505 -35.9415 63.5874 -57.2775 49.571 -45.9353C45.5136 -42.6245 22.3376 -25.0287 18.9564 -22.699C14.2228 -19.3882 9.05884 17.8266 7.21457 25.9195C6.53834 29.046 12.3785 31.7446 15.9441 29.9661ZM24.9809 -14.9121C47.5423 -31.8951 50.6161 -34.3475 50.6161 -33.3052C50.6161 -32.5695 46.4357 -13.8698 46.0669 -10.1912C45.698 -6.14479 32.9726 2.62188 17.9112 15.313C15.944 16.907 18.1571 14.3326 24.9809 -14.9121Z" fill="#162E3C"/>
</g>
<defs>
<clipPath id="clip0_2_215">
<rect width="180" height="206" fill="white" transform="translate(0 -72)"/>
</clipPath>
</defs>
</svg>
