<svg width="101" height="100" viewBox="0 0 101 100" fill="none" xmlns="http://www.w3.org/2000/svg">
<path d="M90.0486 34C90.0486 39.2598 85.773 44.1431 78.5824 47.7384C71.4188 51.3202 61.4908 53.5486 50.5 53.5486C39.5092 53.5486 29.5812 51.3202 22.4176 47.7384C15.227 44.1431 10.9514 39.2598 10.9514 34C10.9514 28.7402 15.227 23.8569 22.4176 20.2616C29.5812 16.6798 39.5092 14.4514 50.5 14.4514C61.4908 14.4514 71.4188 16.6798 78.5824 20.2616C85.773 23.8569 90.0486 28.7402 90.0486 34Z" stroke="#DDF0A7" stroke-width="0.902778"/>
<path d="M90.0486 36.2222C90.0486 41.4819 85.773 46.3653 78.5824 49.9606C71.4188 53.5424 61.4908 55.7708 50.5 55.7708C39.5092 55.7708 29.5812 53.5424 22.4176 49.9606C15.227 46.3653 10.9514 41.4819 10.9514 36.2222C10.9514 30.9624 15.227 26.0791 22.4176 22.4838C29.5812 18.902 39.5092 16.6736 50.5 16.6736C61.4908 16.6736 71.4188 18.902 78.5824 22.4838C85.773 26.0791 90.0486 30.9624 90.0486 36.2222Z" stroke="#DDF0A7" stroke-width="0.902778"/>
<path d="M90.0486 38.4445C90.0486 43.7042 85.773 48.5876 78.5824 52.1829C71.4188 55.7647 61.4908 57.993 50.5 57.993C39.5092 57.993 29.5812 55.7647 22.4176 52.1829C15.227 48.5876 10.9514 43.7042 10.9514 38.4445C10.9514 33.1847 15.227 28.3014 22.4176 24.7061C29.5812 21.1243 39.5092 18.8958 50.5 18.8958C61.4908 18.8958 71.4188 21.1243 78.5824 24.7061C85.773 28.3014 90.0486 33.1847 90.0486 38.4445Z" stroke="#DDF0A7" stroke-width="0.902778"/>
<path d="M90.0486 40.6665C90.0486 45.9263 85.773 50.8096 78.5824 54.4049C71.4188 57.9867 61.4908 60.2151 50.5 60.2151C39.5092 60.2151 29.5812 57.9867 22.4176 54.4049C15.227 50.8096 10.9514 45.9263 10.9514 40.6665C10.9514 35.4068 15.227 30.5234 22.4176 26.9281C29.5812 23.3463 39.5092 21.1179 50.5 21.1179C61.4908 21.1179 71.4188 23.3463 78.5824 26.9281C85.773 30.5234 90.0486 35.4068 90.0486 40.6665Z" stroke="#DDF0A7" stroke-width="0.902778"/>
<path d="M90.0486 42.8889C90.0486 48.1487 85.773 53.032 78.5824 56.6273C71.4188 60.2091 61.4908 62.4375 50.5 62.4375C39.5092 62.4375 29.5812 60.2091 22.4176 56.6273C15.227 53.032 10.9514 48.1487 10.9514 42.8889C10.9514 37.6292 15.227 32.7458 22.4176 29.1505C29.5812 25.5687 39.5092 23.3403 50.5 23.3403C61.4908 23.3403 71.4188 25.5687 78.5824 29.1505C85.773 32.7458 90.0486 37.6292 90.0486 42.8889Z" stroke="#DDF0A7" stroke-width="0.902778"/>
<path d="M90.0486 45.1111C90.0486 50.3708 85.773 55.2542 78.5824 58.8495C71.4188 62.4313 61.4908 64.6597 50.5 64.6597C39.5092 64.6597 29.5812 62.4313 22.4176 58.8495C15.227 55.2542 10.9514 50.3708 10.9514 45.1111C10.9514 39.8513 15.227 34.968 22.4176 31.3727C29.5812 27.7909 39.5092 25.5625 50.5 25.5625C61.4908 25.5625 71.4188 27.7909 78.5824 31.3727C85.773 34.968 90.0486 39.8513 90.0486 45.1111Z" stroke="#DDF0A7" stroke-width="0.902778"/>
<path d="M90.0486 47.3335C90.0486 52.5932 85.773 57.4766 78.5824 61.0719C71.4188 64.6537 61.4908 66.8821 50.5 66.8821C39.5092 66.8821 29.5812 64.6537 22.4176 61.0719C15.227 57.4766 10.9514 52.5932 10.9514 47.3335C10.9514 42.0737 15.227 37.1904 22.4176 33.5951C29.5812 30.0133 39.5092 27.7849 50.5 27.7849C61.4908 27.7849 71.4188 30.0133 78.5824 33.5951C85.773 37.1904 90.0486 42.0737 90.0486 47.3335Z" stroke="#DDF0A7" stroke-width="0.902778"/>
<path d="M90.0486 49.5554C90.0486 54.8152 85.773 59.6985 78.5824 63.2938C71.4188 66.8756 61.4908 69.1041 50.5 69.1041C39.5092 69.1041 29.5812 66.8756 22.4176 63.2938C15.227 59.6985 10.9514 54.8152 10.9514 49.5554C10.9514 44.2957 15.227 39.4123 22.4176 35.817C29.5812 32.2352 39.5092 30.0068 50.5 30.0068C61.4908 30.0068 71.4188 32.2352 78.5824 35.817C85.773 39.4123 90.0486 44.2957 90.0486 49.5554Z" stroke="#DDF0A7" stroke-width="0.902778"/>
<path d="M90.0486 51.7779C90.0486 57.0377 85.773 61.9209 78.5824 65.5162C71.4188 69.098 61.4908 71.3265 50.5 71.3265C39.5092 71.3265 29.5812 69.098 22.4176 65.5162C15.227 61.9209 10.9514 57.0377 10.9514 51.7779C10.9514 46.5182 15.227 41.6347 22.4176 38.0394C29.5812 34.4576 39.5092 32.2292 50.5 32.2292C61.4908 32.2292 71.4188 34.4576 78.5824 38.0394C85.773 41.6347 90.0486 46.5182 90.0486 51.7779Z" stroke="#DDF0A7" stroke-width="0.902778"/>
<path d="M90.0486 54C90.0486 59.2598 85.773 64.1431 78.5824 67.7384C71.4188 71.3202 61.4908 73.5486 50.5 73.5486C39.5092 73.5486 29.5812 71.3202 22.4176 67.7384C15.227 64.1431 10.9514 59.2598 10.9514 54C10.9514 48.7402 15.227 43.8569 22.4176 40.2616C29.5812 36.6798 39.5092 34.4514 50.5 34.4514C61.4908 34.4514 71.4188 36.6798 78.5824 40.2616C85.773 43.8569 90.0486 48.7402 90.0486 54Z" stroke="#DDF0A7" stroke-width="0.902778"/>
<path d="M90.0486 56.2222C90.0486 61.4819 85.773 66.3653 78.5824 69.9606C71.4188 73.5424 61.4908 75.7708 50.5 75.7708C39.5092 75.7708 29.5812 73.5424 22.4176 69.9606C15.227 66.3653 10.9514 61.4819 10.9514 56.2222C10.9514 50.9624 15.227 46.0791 22.4176 42.4838C29.5812 38.902 39.5092 36.6736 50.5 36.6736C61.4908 36.6736 71.4188 38.902 78.5824 42.4838C85.773 46.0791 90.0486 50.9624 90.0486 56.2222Z" stroke="#DDF0A7" stroke-width="0.902778"/>
<path d="M90.0486 58.4445C90.0486 63.7042 85.773 68.5875 78.5824 72.1828C71.4188 75.7646 61.4908 77.9931 50.5 77.9931C39.5092 77.9931 29.5812 75.7646 22.4176 72.1828C15.227 68.5875 10.9514 63.7042 10.9514 58.4445C10.9514 53.1847 15.227 48.3014 22.4176 44.7061C29.5812 41.1243 39.5092 38.8958 50.5 38.8958C61.4908 38.8958 71.4188 41.1243 78.5824 44.7061C85.773 48.3014 90.0486 53.1847 90.0486 58.4445Z" stroke="#DDF0A7" stroke-width="0.902778"/>
<path d="M90.0486 60.6665C90.0486 65.9263 85.773 70.8096 78.5824 74.4049C71.4188 77.9867 61.4908 80.2151 50.5 80.2151C39.5092 80.2151 29.5812 77.9867 22.4176 74.4049C15.227 70.8096 10.9514 65.9263 10.9514 60.6665C10.9514 55.4068 15.227 50.5234 22.4176 46.9281C29.5812 43.3463 39.5092 41.1179 50.5 41.1179C61.4908 41.1179 71.4188 43.3463 78.5824 46.9281C85.773 50.5234 90.0486 55.4068 90.0486 60.6665Z" stroke="#DDF0A7" stroke-width="0.902778"/>
<path d="M90.0486 62.8889C90.0486 68.1487 85.773 73.032 78.5824 76.6273C71.4188 80.2091 61.4908 82.4375 50.5 82.4375C39.5092 82.4375 29.5812 80.2091 22.4176 76.6273C15.227 73.032 10.9514 68.1487 10.9514 62.8889C10.9514 57.6292 15.227 52.7458 22.4176 49.1505C29.5812 45.5687 39.5092 43.3403 50.5 43.3403C61.4908 43.3403 71.4188 45.5687 78.5824 49.1505C85.773 52.7458 90.0486 57.6292 90.0486 62.8889Z" stroke="#DDF0A7" stroke-width="0.902778"/>
<path d="M90.0486 65.1111C90.0486 70.3708 85.773 75.2542 78.5824 78.8495C71.4188 82.4313 61.4908 84.6597 50.5 84.6597C39.5092 84.6597 29.5812 82.4313 22.4176 78.8495C15.227 75.2542 10.9514 70.3708 10.9514 65.1111C10.9514 59.8513 15.227 54.968 22.4176 51.3727C29.5812 47.7909 39.5092 45.5625 50.5 45.5625C61.4908 45.5625 71.4188 47.7909 78.5824 51.3727C85.773 54.968 90.0486 59.8513 90.0486 65.1111Z" stroke="#DDF0A7" stroke-width="0.902778"/>
</svg>
