<svg width="81" height="80" viewBox="0 0 81 80" fill="none" xmlns="http://www.w3.org/2000/svg">
<path fill-rule="evenodd" clip-rule="evenodd" d="M80.5 40C80.5 17.9086 62.5914 0 40.5 0C18.4086 0 0.5 17.9086 0.5 40C0.5 62.0914 18.4086 80 40.5 80C62.5914 80 80.5 62.0914 80.5 40ZM35.5 40C35.5 57.5541 36.9135 72.4672 38.8796 77.8526C38.5083 77.4676 38.1071 76.9369 37.6836 76.2206C36.575 74.3448 35.5332 71.5474 34.6416 67.9811C32.8632 60.8677 31.75 50.9743 31.75 40C31.75 29.0257 32.8632 19.1323 34.6416 12.0189C35.5332 8.4526 36.575 5.6552 37.6836 3.7794C38.1071 3.0631 38.5083 2.5324 38.8796 2.1474C36.9135 7.5328 35.5 22.4459 35.5 40ZM43.3164 76.2206C42.8929 76.9369 42.4917 77.4676 42.1204 77.8526C44.0865 72.4672 45.5 57.5541 45.5 40C45.5 22.4459 44.0865 7.5328 42.1204 2.1474C42.4917 2.5324 42.8929 3.0631 43.3164 3.7794C44.425 5.6552 45.4668 8.4526 46.3584 12.0189C48.1368 19.1323 49.25 29.0257 49.25 40C49.25 50.9743 48.1368 60.8677 46.3584 67.9811C45.4668 71.5474 44.425 74.3448 43.3164 76.2206ZM36.8483 77.2492C36.4318 76.9047 36.0142 76.4983 35.5966 76.0273C33.9396 74.1584 32.3903 71.3827 31.0638 67.8454C28.4143 60.78 26.75 50.9355 26.75 40C26.75 29.0645 28.4143 19.22 31.0638 12.1546C32.3903 8.6174 33.9396 5.8416 35.5966 3.9727C36.0142 3.5017 36.4318 3.0953 36.8483 2.7508C33.1315 8.5853 30.5 23.0634 30.5 40C30.5 56.9366 33.1315 71.4147 36.8483 77.2492ZM44.1517 77.2492C44.5682 76.9047 44.9858 76.4983 45.4034 76.0273C47.0604 74.1584 48.6097 71.3827 49.9362 67.8454C52.5857 60.78 54.25 50.9355 54.25 40C54.25 29.0645 52.5857 19.22 49.9362 12.1546C48.6097 8.6174 47.0604 5.8416 45.4034 3.9727C44.9858 3.5017 44.5682 3.0953 44.1517 2.7508C47.8685 8.5853 50.5 23.0634 50.5 40C50.5 56.9366 47.8685 71.4147 44.1517 77.2492ZM27.4759 67.7253C29.5062 71.7858 31.9035 74.8057 34.48 76.6483C29.193 70.4638 25.5 56.3819 25.5 40C25.5 23.6181 29.193 9.5362 34.48 3.3517C31.9035 5.1943 29.5062 8.2142 27.4759 12.2747C23.9604 19.3057 21.75 29.1063 21.75 40C21.75 50.8937 23.9604 60.6943 27.4759 67.7253ZM53.5241 67.7253C51.4938 71.7858 49.0965 74.8057 46.52 76.6483C51.807 70.4638 55.5 56.3819 55.5 40C55.5 23.6181 51.807 9.5362 46.52 3.3517C49.0965 5.1943 51.4938 8.2142 53.5241 12.2747C57.0396 19.3057 59.25 29.1063 59.25 40C59.25 50.8937 57.0396 60.6943 53.5241 67.7253ZM31.8398 76.0658C28.8794 74.1595 26.1745 71.2892 23.8823 67.6218C19.5009 60.6114 16.75 50.8489 16.75 40C16.75 29.1511 19.5009 19.3886 23.8823 12.3782C26.1745 8.7108 28.8794 5.8406 31.8398 3.9342C25.1307 10.39 20.5 24.1135 20.5 40C20.5 55.8865 25.1307 69.61 31.8398 76.0658ZM49.1602 76.0658C52.1206 74.1595 54.8255 71.2892 57.1177 67.6218C61.4991 60.6114 64.25 50.8489 64.25 40C64.25 29.1511 61.4991 19.3886 57.1177 12.3782C54.8255 8.7108 52.1206 5.8406 49.1602 3.9342C55.8693 10.39 60.5 24.1135 60.5 40C60.5 55.8865 55.8693 69.61 49.1602 76.0658ZM20.2868 67.5343C22.7894 70.8711 25.7253 73.5747 28.9576 75.4908C20.9602 68.8188 15.5 55.4296 15.5 40C15.5 24.5704 20.9602 11.1812 28.9576 4.5092C25.7253 6.4253 22.7894 9.1289 20.2868 12.4657C15.0352 19.4679 11.75 29.1986 11.75 40C11.75 50.8014 15.0352 60.5321 20.2868 67.5343ZM60.7132 67.5343C58.2106 70.8711 55.2747 73.5747 52.0424 75.4908C60.0398 68.8188 65.5 55.4296 65.5 40C65.5 24.5704 60.0398 11.1812 52.0424 4.5092C55.2747 6.4253 58.2106 9.1289 60.7132 12.4657C65.9648 19.4679 69.25 29.1986 69.25 40C69.25 50.8014 65.9648 60.5321 60.7132 67.5343ZM25.8269 74.8972C14.5846 68.6524 6.75 55.4494 6.75 40C6.75 24.5506 14.5846 11.3476 25.8269 5.1028C16.6799 11.9548 10.5 25.0151 10.5 40C10.5 54.9849 16.6799 68.0452 25.8269 74.8972ZM55.173 74.8972C66.4154 68.6524 74.25 55.4494 74.25 40C74.25 24.5506 66.4154 11.3476 55.1731 5.1028C64.3201 11.9548 70.5 25.0151 70.5 40C70.5 54.9849 64.3201 68.0452 55.173 74.8972ZM1.75 40C1.75 54.9353 10.1996 67.8972 22.5792 74.366C12.3502 67.384 5.5 54.6062 5.5 40C5.5 25.3938 12.3502 12.616 22.5792 5.634C10.1996 12.1028 1.75 25.0647 1.75 40ZM79.25 40C79.25 54.9353 70.8004 67.8972 58.4208 74.366C68.6498 67.384 75.5 54.6062 75.5 40C75.5 25.3938 68.6498 12.616 58.4208 5.634C70.8004 12.1028 79.25 25.0647 79.25 40ZM42.7952 68.1292C43.6918 60.9564 44.25 51.0107 44.25 40C44.25 28.9893 43.6918 19.0436 42.7952 11.8708C42.3458 8.2756 41.8171 5.425 41.2475 3.4977C41.2064 3.3587 41.1656 3.2261 41.125 3.0996V76.9004C41.1656 76.7739 41.2064 76.6413 41.2475 76.5023C41.8171 74.575 42.3458 71.7244 42.7952 68.1292ZM39.875 3.0996V76.9004C39.8344 76.7739 39.7936 76.6413 39.7525 76.5023C39.1829 74.575 38.6542 71.7244 38.2048 68.1292C37.3082 60.9564 36.75 51.0107 36.75 40C36.75 28.9893 37.3082 19.0436 38.2048 11.8708C38.6542 8.2756 39.1829 5.425 39.7525 3.4977C39.7936 3.3587 39.8344 3.2261 39.875 3.0996Z" fill="#DDF0A7"/>
</svg>
