<svg width="170" height="240" viewBox="0 0 170 240" fill="none" xmlns="http://www.w3.org/2000/svg">
<path fill-rule="evenodd" clip-rule="evenodd" d="M146.348 0.264725C115.769 1.8217 92.5955 24.3121 70.5371 45.4529C47.8537 67.1926 21.1373 89.588 20.4488 120.926C19.7521 152.638 43.9112 178.074 67.1467 199.775C89.4475 220.605 115.849 236.313 146.348 238.515C179.303 240.896 215.133 235.913 237.938 212.109C260.415 188.648 260.416 153.318 259.007 120.926C257.676 90.3403 251.269 59.7406 230.332 37.3167C208.659 14.1053 178.138 -1.35392 146.348 0.264725Z" fill="#1F3847"/>
<path d="M77.11 70.4769C72.3782 66.3314 68.8766 59.3594 67.5517 53.8007C65.7536 45.8867 76.5421 35.1463 85.3433 54.0835C92.0624 68.5926 99.2548 70.3827 105.028 58.9827C110.801 47.4885 121.779 47.771 118.277 59.2652C114.019 73.5859 88.6556 80.4637 77.11 70.4769Z" fill="#DDF0A7"/>
<path d="M180.831 76.0358C165.406 87.53 146.762 79.4275 144.113 60.0193C142.409 47.6771 156.605 47.7713 161.715 60.1135C168.15 75.6589 174.018 74.2457 177.235 56.3449C178.276 50.4093 184.617 47.206 188.213 50.7862C193.039 55.5912 188.875 70.006 180.831 76.0358Z" fill="#DDF0A7"/>
<path d="M139.001 114.758C127.266 126.911 101.999 119.092 97.7406 102.039C95.3747 92.7118 110.137 93.6539 117.424 103.263C121.21 108.351 124.049 110.706 123.954 110.612C124.995 111.554 126.699 111.46 127.55 110.33C128.402 109.199 130.2 105.713 131.43 102.51C134.175 95.6324 141.651 91.3928 145.058 94.7845C147.519 97.2341 143.733 109.858 139.001 114.758Z" fill="#DDF0A7"/>
<path d="M142.882 144.341C138.435 135.579 144.681 128.984 153.198 133.601C155.28 134.731 157.835 137.652 160.201 141.515C168.623 155.176 170.516 155.554 175.721 144.531C178.466 138.689 179.79 137.464 183.671 137.464C191.43 137.464 187.74 152.916 178.56 158.663C165.217 167.142 151.778 161.771 142.882 144.341Z" fill="#DDF0A7"/>
<path d="M120.548 190.224C126.416 189.659 127.835 190.318 133.608 196.348C141.084 204.168 147.614 199.268 148.845 184.854C149.223 180.143 152.819 179.389 155.942 183.252C167.866 198.326 140.99 219.053 124.05 207.841C115.438 202.094 113.167 190.883 120.548 190.224Z" fill="#DDF0A7"/>
<path d="M13.2307 41.6471C14.7448 43.343 17.4893 47.2058 19.2874 50.4091C26.9529 64.1645 29.2242 64.0703 37.7414 49.938C45.3123 37.3132 54.0188 39.1033 49.3816 52.1992C43.3249 69.3463 19.382 75.7519 8.30957 63.2213C-7.11609 45.7916 5.09195 32.6967 13.2307 41.6471Z" fill="#DDF0A7"/>
<path d="M42.8517 93.2767C44.7444 94.9726 47.6781 98.2701 49.2869 100.625C57.8042 113.156 60.8325 112.779 67.0785 98.6469C70.9586 89.7907 82.3149 86.7759 79.949 100.154C75.5011 124.65 34.3345 124.462 29.8866 97.2337C28.751 90.356 36.7003 87.8122 42.8517 93.2767Z" fill="#DDF0A7"/>
<path d="M76.0691 136.144C77.5833 136.898 82.1258 140.761 86.0059 144.53C98.4032 156.589 103.798 156.589 108.719 144.059C110.99 138.311 111.842 137.558 115.533 137.558C123.104 137.558 121.116 151.69 112.788 157.154C95.7534 168.272 65.0913 156.966 65.0913 139.536C65.1859 135.768 71.5266 133.789 76.0691 136.144Z" fill="#DDF0A7"/>
</svg>
