<svg width="260" height="275" viewBox="0 0 260 275" fill="none" xmlns="http://www.w3.org/2000/svg">
<path fill-rule="evenodd" clip-rule="evenodd" d="M155.127 273.808C185.784 272.973 219.754 275.167 241.21 253.322C262.548 231.596 260.304 197.894 259.541 167.498C258.803 138.168 255.789 108.45 237.003 85.8677C216.44 61.148 187.263 39.7663 155.127 41.9816C124.084 44.1217 106.204 74.8521 83.8429 96.4266C60.8314 118.629 28.886 135.803 25.0384 167.498C20.9165 201.451 37.6804 236.46 64.211 258.141C88.9374 278.348 123.168 274.678 155.127 273.808Z" fill="#1F3847"/>
<path d="M53.1769 51.6285C33.2387 51.1392 31.7049 71.3238 47.9627 120.562C53.1769 136.404 48.7598 145.823 37.2264 143.377C29.6804 141.786 22.7479 129.737 16.2448 106.861C10.662 87.1051 4.64972 81.5996 -5.10488 87.1045C-15.2276 92.8541 -16.0865 104.415 -8.11102 129.065C-6.88402 132.796 -5.35048 137.627 -4.67563 139.829C5.44726 172.063 34.1589 195.307 65.0788 196.346C80.1099 196.835 64.2817 199.955 49.4351 197.631C21.7049 193.227 -5.47298 167.171 -14.8595 135.793C-27.0681 94.8731 -23.3871 82.1507 0.723339 82.0895C14.1589 82.0284 15.57 83.6181 24.8338 109.674C35.8154 140.501 43.8518 150.105 42.4412 130.654C42.0731 126.006 27.1037 87.5327 27.1037 71.8131C27.1037 54.014 41.0297 42.7595 57.1033 47.5916C63.8518 49.6712 61.705 51.8732 53.1769 51.6285Z" fill="#DDF0A7"/>
<path d="M129.864 170.29C115.938 186.315 87.4719 200.629 77.4106 196.652C73.2388 195.001 73.9131 193.043 78.6984 193.043C88.0236 193.043 105.815 183.685 116.306 173.287C144.833 144.968 146.306 93.4051 119.68 59.7641C114.404 53.097 101.092 48.0203 96.9806 63.3117C94.1585 73.9545 96.9198 82.7623 102.073 94.9342C111.153 116.22 110.232 125.762 98.9438 125.762C90.3548 125.762 87.5328 121.848 77.4106 95.7906C69.2506 74.8108 63.2383 60.3757 61.5823 57.868C57.7787 52.1796 64.588 52.3013 68.8825 58.0509C71.521 61.5985 78.1467 75.4836 80.0481 81.4167C84.2199 94.3226 87.9627 108.88 94.8947 118.055C98.453 122.826 101.275 123.009 100.416 116.403C99.8645 112.366 97.7168 106.434 93.545 97.075C80.6616 68.3884 84.4653 50.0388 103.606 48.8155C118.392 47.898 128.269 54.565 136.429 72.8535C153.852 111.999 148.882 148.392 129.864 170.29Z" fill="#DDF0A7"/>
</svg>
