<svg width="187" height="250" viewBox="0 0 187 250" fill="none" xmlns="http://www.w3.org/2000/svg">
<g clip-path="url(#clip0_2_109)">
<path fill-rule="evenodd" clip-rule="evenodd" d="M42.1799 247.359C5.84072 247.624 -35.5739 258.104 -61.6848 232.907C-87.948 207.565 -84.1869 165.577 -80.0941 129.368C-76.5345 97.8767 -62.5363 69.7826 -40.6483 46.7994C-18.0476 23.0681 9.48987 3.94423 42.1799 0.97637C77.9574 -2.27174 117.828 3.40785 141.608 30.253C164.647 56.2633 155.4 94.6729 155.906 129.368C156.424 164.939 169.265 205.752 144.538 231.405C119.666 257.212 78.0798 247.098 42.1799 247.359Z" fill="#1F3847"/>
<path d="M34.2245 112.116C46.3472 94.3249 34.813 77.4576 16.2926 85.8497C-0.292021 93.4026 -12.3306 111.025 -15.5296 132.509C-18.0552 149.21 19.3229 133.852 34.2245 112.116ZM-0.881271 124.285C5.01171 110.522 13.5145 99.8645 22.9431 94.4097C27.9943 91.4724 28.5838 91.8081 27.6575 97.0952C26.4794 103.222 11.2414 121.516 2.40201 127.139C-3.65944 130.999 -3.74357 130.999 -0.881271 124.285Z" fill="#DDF0A7"/>
<path d="M161.428 69.4846C142.655 74.6038 123.966 90.9684 123.966 102.466C123.966 107.837 129.186 111.781 131.374 107.92C132.047 106.746 132.721 106.83 137.435 109.179C150.148 115.557 172.372 104.815 180.707 88.45C187.273 75.6101 176.834 65.2885 161.428 69.4846ZM170.099 80.1426C166.732 89.8775 138.614 108.089 136.257 101.962C134.994 98.7732 152.505 85.0101 164.291 79.8908C171.278 76.7858 171.193 76.8697 170.099 80.1426Z" fill="#DDF0A7"/>
<path d="M18.3127 146.442C8.21085 150.049 -8.20535 168.344 -8.20535 176.065C-8.20535 176.652 -9.55232 179.924 -11.1519 183.281C-19.9072 201.493 0.213084 208.122 18.4816 193.101C46.6839 169.854 46.599 136.371 18.3127 146.442ZM28.4149 157.602C22.4385 177.324 -4.16455 194.023 -0.712899 190.835C-1.89149 191.254 -3.15443 190.248 -2.90182 188.989C-0.79724 178.667 13.4303 161.379 24.9636 155.253C29.2573 152.987 29.7619 153.322 28.4149 157.602Z" fill="#DDF0A7"/>
<path d="M165.469 117.237C143.665 124.034 116.726 150.134 123.124 158.191C132.131 169.604 163.785 157.434 181.632 135.615C192.577 122.187 183.316 111.614 165.469 117.237ZM174.14 127.81C169.426 136.538 133.478 159.868 129.69 157.434C127.165 155.84 129.101 152.735 132.216 153.238C135.331 153.826 135.499 153.657 140.55 148.035C146.948 140.901 157.64 131.502 166.142 126.802C173.719 122.691 175.403 125.545 174.14 127.81Z" fill="#DDF0A7"/>
<path d="M150.737 52.8688C180.622 35.0774 183.485 5.53706 154.693 12.5865C135.92 17.2021 118.998 34.9096 115.294 42.2108C111.59 49.6797 113.274 54.715 119.335 53.708C120.514 53.5401 121.441 53.6241 121.441 53.9598C121.441 60.3378 139.372 59.6664 150.737 52.8688ZM138.614 35.1606C147.958 27.272 162.691 19.2164 162.691 21.9858C162.691 26.6853 142.319 45.3998 132.805 49.3441C126.828 51.7778 131.037 41.5386 138.614 35.1606Z" fill="#DDF0A7"/>
<path d="M51.1455 119.166C51.819 118.41 55.2703 112.117 55.6071 111.613C56.5334 114.55 58.9745 116.9 61.9212 117.739C71.6868 120.593 84.0622 113.291 97.8686 96.1715C103.088 89.7096 105.866 84.5903 106.202 80.6461C108.223 57.8194 50.7248 75.359 48.3676 112.117C48.0309 117.572 49.6297 121.6 51.1455 119.166ZM70.2558 93.0664C82.5464 80.73 97.363 72.5057 95.7633 78.8838C94.4163 84.4226 87.008 92.6469 79.3479 99.0249C74.2118 103.389 64.783 110.27 62.7626 108.172C59.648 104.899 70.1709 93.1503 70.2558 93.0664Z" fill="#DDF0A7"/>
<path d="M61.5006 69.9042C76.4851 69.9042 102.077 45.9027 102.077 31.8878C102.077 22.9083 89.7869 17.8734 78.0848 21.9855C46.599 33.0635 33.8878 69.9042 61.5006 69.9042ZM61.5845 56.6447C64.4463 46.7419 72.0235 37.9301 82.3785 32.3075C88.5238 28.9506 88.6917 28.9506 87.5136 32.3075C84.3141 41.8745 59.0584 65.5403 61.5845 56.6447Z" fill="#DDF0A7"/>
<path d="M86.924 125.461C67.6458 132.174 43.5683 162.134 51.9869 168.764C53.166 169.686 54.0923 171.03 54.0923 171.785C54.0923 189.829 95.0059 171.701 105.614 149.042C113.443 132.594 103.172 119.754 86.924 125.461ZM95.7633 138.803C92.3958 149.126 70.5926 169.52 63.0154 169.771C57.8803 169.94 64.3624 160.792 65.6254 158.862C69.7502 152.4 84.0622 139.728 92.144 135.28C97.2791 132.426 97.6998 132.929 95.7633 138.803Z" fill="#DDF0A7"/>
</g>
<defs>
<clipPath id="clip0_2_109">
<rect width="270" height="250" fill="white" transform="translate(-83)"/>
</clipPath>
</defs>
</svg>
