<svg width="112" height="28" viewBox="0 0 112 28" fill="none" xmlns="http://www.w3.org/2000/svg">
<g clip-path="url(#clip0_2_17)">
<path d="M24 14C24 16.3734 23.2962 18.6935 21.9776 20.6668C20.6591 22.6402 18.7849 24.1783 16.5922 25.0866C14.3995 25.9948 11.9867 26.2324 9.65892 25.7694C7.33114 25.3064 5.19295 24.1635 3.51472 22.4853C1.83649 20.8071 0.693597 18.6689 0.230575 16.3411C-0.232448 14.0133 0.00519168 11.6005 0.913444 9.4078C1.8217 7.21509 3.35977 5.34094 5.33316 4.02236C7.30655 2.70379 9.62662 2 12 2V8C10.8133 8 9.65327 8.35189 8.66658 9.01118C7.67988 9.67047 6.91085 10.6075 6.45672 11.7039C6.0026 12.8003 5.88378 14.0067 6.11529 15.1705C6.3468 16.3344 6.91824 17.4035 7.75736 18.2426C8.59647 19.0818 9.66557 19.6532 10.8295 19.8847C11.9933 20.1162 13.1997 19.9974 14.2961 19.5433C15.3925 19.0892 16.3295 18.3201 16.9888 17.3334C17.6481 16.3467 18 15.1867 18 14H24Z" fill="#C1D585"/>
<path d="M38.7 21.3C38.1933 21.3 37.7567 21.2433 37.39 21.13C37.03 21.0167 36.73 20.9033 36.49 20.79C36.2567 20.6767 36.07 20.62 35.93 20.62C35.79 20.62 35.6633 20.6567 35.55 20.73C35.4433 20.8033 35.34 20.8867 35.24 20.98C35.14 21.0733 35.0333 21.1567 34.92 21.23C34.8133 21.3033 34.6933 21.34 34.56 21.34C34.3933 21.34 34.2533 21.29 34.14 21.19C34.0333 21.09 33.96 20.9267 33.92 20.7L33.29 17.3C33.27 17.14 33.2933 17.0033 33.36 16.89C33.4333 16.77 33.5567 16.68 33.73 16.62C33.9167 16.5533 34.0767 16.5567 34.21 16.63C34.35 16.6967 34.4733 16.83 34.58 17.03C34.9867 17.8233 35.4 18.4433 35.82 18.89C36.24 19.3367 36.6667 19.6533 37.1 19.84C37.5333 20.02 37.9767 20.11 38.43 20.11C39.05 20.11 39.54 19.9567 39.9 19.65C40.2667 19.3367 40.4533 18.91 40.46 18.37C40.46 18.01 40.3733 17.69 40.2 17.41C40.0333 17.13 39.7067 16.86 39.22 16.6C38.7333 16.3333 38.0167 16.0533 37.07 15.76C36.0367 15.44 35.21 15.0667 34.59 14.64C33.97 14.2067 33.52 13.6933 33.24 13.1C32.9667 12.5 32.83 11.8 32.83 11C32.83 10.1667 33.03 9.43 33.43 8.79C33.8367 8.14333 34.4067 7.64 35.14 7.28C35.88 6.92 36.7467 6.74 37.74 6.74C38.3133 6.74 38.79 6.79667 39.17 6.91C39.5567 7.01667 39.88 7.12667 40.14 7.24C40.4 7.34667 40.62 7.4 40.8 7.4C40.96 7.4 41.0933 7.34333 41.2 7.23C41.3133 7.11 41.43 6.99333 41.55 6.88C41.6767 6.76 41.8433 6.7 42.05 6.7C42.2167 6.7 42.36 6.75667 42.48 6.87C42.6 6.97667 42.7033 7.18 42.79 7.48L43.71 10.82C43.77 11.0267 43.7633 11.21 43.69 11.37C43.6167 11.5233 43.4933 11.63 43.32 11.69C43.1333 11.7433 42.97 11.7367 42.83 11.67C42.69 11.5967 42.5733 11.47 42.48 11.29C42.0467 10.4433 41.59 9.77667 41.11 9.29C40.63 8.79667 40.14 8.44667 39.64 8.24C39.1467 8.03333 38.6567 7.93 38.17 7.93C37.5633 7.93 37.0867 8.10333 36.74 8.45C36.3933 8.79 36.22 9.23667 36.22 9.79C36.22 10.1367 36.3 10.4567 36.46 10.75C36.62 11.0367 36.9367 11.3233 37.41 11.61C37.89 11.89 38.59 12.1933 39.51 12.52C40.5433 12.8867 41.3667 13.2867 41.98 13.72C42.5933 14.1467 43.0333 14.6367 43.3 15.19C43.5733 15.7367 43.71 16.3767 43.71 17.11C43.71 17.8833 43.51 18.5867 43.11 19.22C42.71 19.8533 42.1367 20.36 41.39 20.74C40.65 21.1133 39.7533 21.3 38.7 21.3ZM45.6391 12.58L45.2291 12.44C45.0824 12.3867 44.9757 12.32 44.9091 12.24C44.8424 12.16 44.8091 12.0667 44.8091 11.96C44.8091 11.8067 44.8624 11.69 44.9691 11.61C45.0757 11.5233 45.2124 11.48 45.3791 11.48H45.9691C46.1091 11.48 46.2324 11.45 46.3391 11.39C46.4457 11.33 46.5657 11.22 46.6991 11.06L48.1191 9.45C48.2857 9.26333 48.4457 9.12333 48.5991 9.03C48.7524 8.93667 48.9024 8.89 49.0491 8.89C49.2091 8.89 49.3357 8.94333 49.4291 9.05C49.5224 9.15667 49.5691 9.30667 49.5691 9.5V17.78C49.5691 18.2667 49.6557 18.6367 49.8291 18.89C50.0091 19.1367 50.2591 19.26 50.5791 19.26C50.8257 19.26 51.0157 19.2067 51.1491 19.1C51.2824 18.9933 51.3891 18.87 51.4691 18.73C51.5557 18.5833 51.6391 18.4533 51.7191 18.34C51.8057 18.2267 51.9191 18.1633 52.0591 18.15C52.1657 18.15 52.2524 18.1867 52.3191 18.26C52.3857 18.3333 52.4191 18.4633 52.4191 18.65C52.4124 19.1233 52.2691 19.5567 51.9891 19.95C51.7091 20.3433 51.3191 20.6567 50.8191 20.89C50.3257 21.1233 49.7624 21.24 49.1291 21.24C48.1624 21.24 47.4091 21.0033 46.8691 20.53C46.3357 20.0567 46.0691 19.34 46.0691 18.38V13.18C46.0691 13 46.0357 12.87 45.9691 12.79C45.9024 12.7033 45.7924 12.6333 45.6391 12.58ZM48.2991 12.63V11.48H51.7691C51.9424 11.48 52.0791 11.5167 52.1791 11.59C52.2791 11.6633 52.3291 11.7667 52.3291 11.9C52.3291 12.1067 52.2291 12.28 52.0291 12.42C51.8291 12.56 51.4991 12.63 51.0391 12.63H48.2991ZM59.4617 19.7V19.48L59.2117 19.46V13.22C59.2117 12.86 59.1184 12.5767 58.9317 12.37C58.7451 12.1633 58.4884 12.06 58.1617 12.06C57.8751 12.06 57.6451 12.1267 57.4717 12.26C57.2984 12.3867 57.2117 12.5467 57.2117 12.74V13.72C57.2117 14.2 57.0484 14.5733 56.7217 14.84C56.4017 15.1 55.9484 15.23 55.3617 15.23C54.8551 15.23 54.4751 15.1167 54.2217 14.89C53.9751 14.6633 53.8517 14.35 53.8517 13.95C53.8517 13.5233 54.0351 13.1033 54.4017 12.69C54.7684 12.27 55.3184 11.9233 56.0517 11.65C56.7851 11.37 57.6984 11.23 58.7917 11.23C60.1051 11.23 61.0817 11.4833 61.7217 11.99C62.3617 12.49 62.6817 13.1767 62.6817 14.05V19.04C62.6817 19.2 62.7151 19.3267 62.7817 19.42C62.8551 19.5067 62.9584 19.55 63.0917 19.55C63.2184 19.55 63.3184 19.5167 63.3917 19.45C63.4651 19.3833 63.5284 19.3133 63.5817 19.24C63.6284 19.2 63.6717 19.1633 63.7117 19.13C63.7517 19.0967 63.8017 19.08 63.8617 19.08C63.9617 19.08 64.0317 19.1167 64.0717 19.19C64.1117 19.2567 64.1317 19.3433 64.1317 19.45C64.1317 19.7033 64.0384 19.97 63.8517 20.25C63.6717 20.53 63.3984 20.77 63.0317 20.97C62.6717 21.1633 62.2217 21.26 61.6817 21.26C61.0151 21.26 60.4784 21.1167 60.0717 20.83C59.6651 20.5433 59.4617 20.1667 59.4617 19.7ZM53.4517 18.89C53.4517 18.0233 53.8384 17.3333 54.6117 16.82C55.3917 16.3 56.4917 16.04 57.9117 16.04C58.3184 16.04 58.6784 16.0733 58.9917 16.14C59.3117 16.2 59.5817 16.2867 59.8017 16.4L59.5317 17.12C59.3451 17.0267 59.1617 16.9567 58.9817 16.91C58.8017 16.8633 58.6051 16.84 58.3917 16.84C57.9584 16.84 57.6151 16.9667 57.3617 17.22C57.1151 17.4733 56.9917 17.8333 56.9917 18.3C56.9917 18.7667 57.1051 19.1233 57.3317 19.37C57.5584 19.6167 57.8517 19.74 58.2117 19.74C58.4851 19.74 58.7451 19.6767 58.9917 19.55C59.2451 19.4233 59.4484 19.2567 59.6017 19.05L59.8217 19.71C59.4817 20.2033 59.0084 20.5867 58.4017 20.86C57.7951 21.1267 57.1451 21.26 56.4517 21.26C55.5584 21.26 54.8351 21.04 54.2817 20.6C53.7284 20.1533 53.4517 19.5833 53.4517 18.89ZM69.0952 15.63C69.0952 14.6433 69.2318 13.8233 69.5052 13.17C69.7785 12.51 70.1352 12.02 70.5752 11.7C71.0152 11.3733 71.4952 11.21 72.0152 11.21C72.6752 11.21 73.1852 11.4067 73.5452 11.8C73.9052 12.1867 74.0852 12.76 74.0852 13.52C74.0852 14.2467 73.9352 14.7867 73.6352 15.14C73.3352 15.4933 72.9485 15.67 72.4752 15.67C72.0018 15.67 71.6418 15.5467 71.3952 15.3C71.1552 15.0467 71.0318 14.6967 71.0252 14.25V13.86C71.0185 13.6667 70.9752 13.5233 70.8952 13.43C70.8152 13.33 70.6852 13.28 70.5052 13.28C70.3252 13.28 70.1552 13.36 69.9952 13.52C69.8352 13.6733 69.7052 13.9133 69.6052 14.24C69.5118 14.5667 69.4652 14.9967 69.4652 15.53L69.0952 15.63ZM69.2552 11.98L69.4652 14.21V19.2C69.4652 19.4067 69.4985 19.5567 69.5652 19.65C69.6385 19.7433 69.7818 19.8067 69.9952 19.84L70.8052 19.99C70.9785 20.0233 71.1052 20.08 71.1852 20.16C71.2652 20.24 71.3052 20.3567 71.3052 20.51C71.3052 20.6633 71.2518 20.7833 71.1452 20.87C71.0385 20.9567 70.8818 21 70.6752 21H65.5752C65.3618 21 65.2052 20.9567 65.1052 20.87C65.0052 20.7833 64.9552 20.6633 64.9552 20.51C64.9552 20.4033 64.9852 20.31 65.0452 20.23C65.1052 20.1433 65.2018 20.0733 65.3352 20.02L65.6552 19.92C65.7618 19.88 65.8385 19.81 65.8852 19.71C65.9385 19.61 65.9652 19.4433 65.9652 19.21V13.92C65.9652 13.74 65.9385 13.61 65.8852 13.53C65.8318 13.45 65.7485 13.3967 65.6352 13.37L65.2552 13.32C65.1285 13.28 65.0352 13.2267 64.9752 13.16C64.9218 13.0867 64.8952 12.9967 64.8952 12.89C64.8952 12.7567 64.9318 12.65 65.0052 12.57C65.0852 12.49 65.2218 12.4167 65.4152 12.35L67.4652 11.6C67.8518 11.4467 68.1318 11.35 68.3052 11.31C68.4785 11.2633 68.6118 11.24 68.7052 11.24C68.8652 11.24 68.9852 11.2967 69.0652 11.41C69.1518 11.5233 69.2152 11.7133 69.2552 11.98ZM75.4438 12.58L75.0338 12.44C74.8871 12.3867 74.7804 12.32 74.7138 12.24C74.6471 12.16 74.6138 12.0667 74.6138 11.96C74.6138 11.8067 74.6671 11.69 74.7738 11.61C74.8804 11.5233 75.0171 11.48 75.1838 11.48H75.7738C75.9138 11.48 76.0371 11.45 76.1438 11.39C76.2504 11.33 76.3704 11.22 76.5038 11.06L77.9238 9.45C78.0904 9.26333 78.2504 9.12333 78.4038 9.03C78.5571 8.93667 78.7071 8.89 78.8538 8.89C79.0138 8.89 79.1404 8.94333 79.2338 9.05C79.3271 9.15667 79.3738 9.30667 79.3738 9.5V17.78C79.3738 18.2667 79.4604 18.6367 79.6338 18.89C79.8138 19.1367 80.0638 19.26 80.3838 19.26C80.6304 19.26 80.8204 19.2067 80.9538 19.1C81.0871 18.9933 81.1938 18.87 81.2738 18.73C81.3604 18.5833 81.4438 18.4533 81.5238 18.34C81.6104 18.2267 81.7238 18.1633 81.8638 18.15C81.9704 18.15 82.0571 18.1867 82.1238 18.26C82.1904 18.3333 82.2238 18.4633 82.2238 18.65C82.2171 19.1233 82.0738 19.5567 81.7938 19.95C81.5138 20.3433 81.1238 20.6567 80.6238 20.89C80.1304 21.1233 79.5671 21.24 78.9338 21.24C77.9671 21.24 77.2138 21.0033 76.6738 20.53C76.1404 20.0567 75.8738 19.34 75.8738 18.38V13.18C75.8738 13 75.8404 12.87 75.7738 12.79C75.7071 12.7033 75.5971 12.6333 75.4438 12.58ZM78.1038 12.63V11.48H81.5738C81.7471 11.48 81.8838 11.5167 81.9838 11.59C82.0838 11.6633 82.1338 11.7667 82.1338 11.9C82.1338 12.1067 82.0338 12.28 81.8338 12.42C81.6338 12.56 81.3038 12.63 80.8438 12.63H78.1038ZM87.7464 11.97V19.21C87.7464 19.4367 87.7697 19.6033 87.8164 19.71C87.8631 19.81 87.9431 19.88 88.0564 19.92L88.3564 20.02C88.4964 20.0733 88.5964 20.14 88.6564 20.22C88.7164 20.3 88.7464 20.3967 88.7464 20.51C88.7464 20.6633 88.6964 20.7833 88.5964 20.87C88.4964 20.9567 88.3364 21 88.1164 21H83.8564C83.6431 21 83.4864 20.9567 83.3864 20.87C83.2864 20.7833 83.2364 20.6633 83.2364 20.51C83.2364 20.4033 83.2664 20.31 83.3264 20.23C83.3864 20.1433 83.4831 20.0733 83.6164 20.02L83.9364 19.92C84.0431 19.88 84.1197 19.81 84.1664 19.71C84.2197 19.61 84.2464 19.4433 84.2464 19.21V13.9C84.2464 13.7133 84.2197 13.58 84.1664 13.5C84.1131 13.42 84.0297 13.3667 83.9164 13.34L83.5364 13.29C83.4097 13.2567 83.3164 13.2067 83.2564 13.14C83.2031 13.0667 83.1764 12.9733 83.1764 12.86C83.1764 12.7333 83.2131 12.6333 83.2864 12.56C83.3597 12.48 83.4964 12.4 83.6964 12.32L85.8064 11.55C86.0997 11.43 86.3331 11.35 86.5064 11.31C86.6797 11.2633 86.8331 11.24 86.9664 11.24C87.2264 11.24 87.4197 11.31 87.5464 11.45C87.6797 11.5833 87.7464 11.7567 87.7464 11.97ZM85.7864 10.04C85.1464 10.04 84.6397 9.88667 84.2664 9.58C83.8931 9.26667 83.7064 8.84667 83.7064 8.32C83.7064 7.80667 83.8931 7.39667 84.2664 7.09C84.6397 6.78333 85.1464 6.63 85.7864 6.63C86.4197 6.63 86.9231 6.78333 87.2964 7.09C87.6764 7.39667 87.8664 7.80667 87.8664 8.32C87.8664 8.84667 87.6764 9.26667 87.2964 9.58C86.9231 9.88667 86.4197 10.04 85.7864 10.04ZM99.2675 14.12C99.2675 14.56 99.1075 14.9333 98.7875 15.24C98.4675 15.54 98.0408 15.69 97.5075 15.69C96.9875 15.69 96.5942 15.55 96.3275 15.27C96.0608 14.9833 95.9275 14.6167 95.9275 14.17V13.82C95.9275 13.38 95.8142 13.03 95.5875 12.77C95.3608 12.5033 95.0575 12.37 94.6775 12.37C94.3508 12.37 94.0542 12.48 93.7875 12.7C93.5208 12.9133 93.3075 13.23 93.1475 13.65C92.9875 14.0633 92.9075 14.5733 92.9075 15.18C92.9075 15.9867 93.0442 16.6667 93.3175 17.22C93.5908 17.7667 93.9642 18.1833 94.4375 18.47C94.9175 18.75 95.4608 18.89 96.0675 18.89C96.5742 18.89 97.0175 18.8033 97.3975 18.63C97.7842 18.4567 98.1208 18.1867 98.4075 17.82C98.5542 17.6733 98.6675 17.5767 98.7475 17.53C98.8342 17.4767 98.9175 17.45 98.9975 17.45C99.1108 17.45 99.1942 17.5067 99.2475 17.62C99.3008 17.7267 99.3275 17.8567 99.3275 18.01C99.3075 18.5967 99.1075 19.1367 98.7275 19.63C98.3475 20.1233 97.8275 20.52 97.1675 20.82C96.5142 21.1133 95.7575 21.26 94.8975 21.26C93.9108 21.26 93.0342 21.0633 92.2675 20.67C91.5008 20.27 90.8942 19.7133 90.4475 19C90.0008 18.28 89.7775 17.44 89.7775 16.48C89.7775 15.4733 89.9975 14.5733 90.4375 13.78C90.8775 12.9867 91.4942 12.36 92.2875 11.9C93.0875 11.44 94.0275 11.21 95.1075 11.21C95.9675 11.21 96.7075 11.3433 97.3275 11.61C97.9475 11.87 98.4242 12.22 98.7575 12.66C99.0975 13.1 99.2675 13.5867 99.2675 14.12ZM106.001 11.21C107.074 11.21 108.014 11.4233 108.821 11.85C109.634 12.2767 110.264 12.87 110.711 13.63C111.164 14.3833 111.391 15.2633 111.391 16.27C111.391 17.21 111.154 18.0567 110.681 18.81C110.214 19.5633 109.567 20.16 108.741 20.6C107.914 21.04 106.957 21.26 105.871 21.26C104.797 21.26 103.857 21.0467 103.051 20.62C102.244 20.1867 101.614 19.5933 101.161 18.84C100.707 18.08 100.481 17.2033 100.481 16.21C100.481 15.25 100.714 14.3967 101.181 13.65C101.654 12.8967 102.304 12.3033 103.131 11.87C103.957 11.43 104.914 11.21 106.001 11.21ZM106.711 20.06C107.064 20 107.344 19.81 107.551 19.49C107.757 19.1633 107.874 18.7067 107.901 18.12C107.934 17.5267 107.864 16.7967 107.691 15.93C107.531 15.0767 107.324 14.38 107.071 13.84C106.817 13.2933 106.527 12.9 106.201 12.66C105.881 12.42 105.534 12.3367 105.161 12.41C104.807 12.4767 104.527 12.6733 104.321 13C104.121 13.32 104.007 13.7733 103.981 14.36C103.954 14.9467 104.021 15.6767 104.181 16.55C104.347 17.39 104.557 18.0833 104.811 18.63C105.064 19.1767 105.351 19.57 105.671 19.81C105.997 20.0433 106.344 20.1267 106.711 20.06Z" fill="#162E3C"/>
</g>
<defs>
<clipPath id="clip0_2_17">
<rect width="112" height="28" fill="white"/>
</clipPath>
</defs>
</svg>
