<svg width="112" height="29" viewBox="0 0 112 29" fill="none" xmlns="http://www.w3.org/2000/svg">
<g clip-path="url(#clip0_2_628)">
<path d="M24 14.667C24 17.0404 23.2962 19.3604 21.9776 21.3338C20.6591 23.3072 18.7849 24.8453 16.5922 25.7535C14.3995 26.6618 11.9867 26.8994 9.65892 26.4364C7.33114 25.9734 5.19295 24.8305 3.51472 23.1523C1.83649 21.474 0.693597 19.3358 0.230575 17.0081C-0.232448 14.6803 0.00519168 12.2675 0.913444 10.0748C1.8217 7.88208 3.35977 6.00793 5.33316 4.68936C7.30655 3.37078 9.62662 2.66699 12 2.66699V8.66699C10.8133 8.66699 9.65327 9.01889 8.66658 9.67817C7.67988 10.3375 6.91085 11.2745 6.45672 12.3709C6.0026 13.4672 5.88378 14.6736 6.11529 15.8375C6.3468 17.0014 6.91824 18.0705 7.75736 18.9096C8.59647 19.7487 9.66557 20.3202 10.8295 20.5517C11.9933 20.7832 13.1997 20.6644 14.2961 20.2103C15.3925 19.7561 16.3295 18.9871 16.9888 18.0004C17.6481 17.0137 18 15.8537 18 14.667H24Z" fill="#DDF0A7"/>
<path d="M38.7 21.9669C38.1933 21.9669 37.7567 21.9102 37.39 21.7969C37.03 21.6836 36.73 21.5702 36.49 21.4569C36.2567 21.3436 36.07 21.2869 35.93 21.2869C35.79 21.2869 35.6633 21.3236 35.55 21.3969C35.4433 21.4702 35.34 21.5536 35.24 21.6469C35.14 21.7402 35.0333 21.8236 34.92 21.8969C34.8133 21.9702 34.6933 22.0069 34.56 22.0069C34.3933 22.0069 34.2533 21.9569 34.14 21.8569C34.0333 21.7569 33.96 21.5936 33.92 21.3669L33.29 17.9669C33.27 17.8069 33.2933 17.6702 33.36 17.5569C33.4333 17.4369 33.5567 17.3469 33.73 17.2869C33.9167 17.2202 34.0767 17.2236 34.21 17.2969C34.35 17.3636 34.4733 17.4969 34.58 17.6969C34.9867 18.4902 35.4 19.1102 35.82 19.5569C36.24 20.0036 36.6667 20.3202 37.1 20.5069C37.5333 20.6869 37.9767 20.7769 38.43 20.7769C39.05 20.7769 39.54 20.6236 39.9 20.3169C40.2667 20.0036 40.4533 19.5769 40.46 19.0369C40.46 18.6769 40.3733 18.3569 40.2 18.0769C40.0333 17.7969 39.7067 17.5269 39.22 17.2669C38.7333 17.0002 38.0167 16.7202 37.07 16.4269C36.0367 16.1069 35.21 15.7336 34.59 15.3069C33.97 14.8736 33.52 14.3602 33.24 13.7669C32.9667 13.1669 32.83 12.4669 32.83 11.6669C32.83 10.8336 33.03 10.0969 33.43 9.45688C33.8367 8.81021 34.4067 8.30688 35.14 7.94688C35.88 7.58688 36.7467 7.40688 37.74 7.40688C38.3133 7.40688 38.79 7.46355 39.17 7.57688C39.5567 7.68355 39.88 7.79355 40.14 7.90688C40.4 8.01355 40.62 8.06687 40.8 8.06687C40.96 8.06687 41.0933 8.01021 41.2 7.89687C41.3133 7.77687 41.43 7.66021 41.55 7.54688C41.6767 7.42687 41.8433 7.36688 42.05 7.36688C42.2167 7.36688 42.36 7.42355 42.48 7.53688C42.6 7.64355 42.7033 7.84687 42.79 8.14687L43.71 11.4869C43.77 11.6936 43.7633 11.8769 43.69 12.0369C43.6167 12.1902 43.4933 12.2969 43.32 12.3569C43.1333 12.4102 42.97 12.4036 42.83 12.3369C42.69 12.2636 42.5733 12.1369 42.48 11.9569C42.0467 11.1102 41.59 10.4436 41.11 9.95688C40.63 9.46355 40.14 9.11355 39.64 8.90688C39.1467 8.70022 38.6567 8.59687 38.17 8.59687C37.5633 8.59687 37.0867 8.77021 36.74 9.11688C36.3933 9.45688 36.22 9.90354 36.22 10.4569C36.22 10.8036 36.3 11.1236 36.46 11.4169C36.62 11.7036 36.9367 11.9902 37.41 12.2769C37.89 12.5569 38.59 12.8602 39.51 13.1869C40.5433 13.5536 41.3667 13.9536 41.98 14.3869C42.5933 14.8136 43.0333 15.3036 43.3 15.8569C43.5733 16.4036 43.71 17.0436 43.71 17.7769C43.71 18.5502 43.51 19.2536 43.11 19.8869C42.71 20.5202 42.1367 21.0269 41.39 21.4069C40.65 21.7802 39.7533 21.9669 38.7 21.9669ZM45.6391 13.2469L45.2291 13.1069C45.0824 13.0536 44.9757 12.9869 44.9091 12.9069C44.8424 12.8269 44.8091 12.7336 44.8091 12.6269C44.8091 12.4736 44.8624 12.3569 44.9691 12.2769C45.0757 12.1902 45.2124 12.1469 45.3791 12.1469H45.9691C46.1091 12.1469 46.2324 12.1169 46.3391 12.0569C46.4457 11.9969 46.5657 11.8869 46.6991 11.7269L48.1191 10.1169C48.2857 9.9302 48.4457 9.79021 48.5991 9.69688C48.7524 9.60355 48.9024 9.55687 49.0491 9.55687C49.2091 9.55687 49.3357 9.61021 49.4291 9.71688C49.5224 9.82355 49.5691 9.97354 49.5691 10.1669V18.4469C49.5691 18.9336 49.6557 19.3036 49.8291 19.5569C50.0091 19.8036 50.2591 19.9269 50.5791 19.9269C50.8257 19.9269 51.0157 19.8736 51.1491 19.7669C51.2824 19.6602 51.3891 19.5369 51.4691 19.3969C51.5557 19.2502 51.6391 19.1202 51.7191 19.0069C51.8057 18.8936 51.9191 18.8302 52.0591 18.8169C52.1657 18.8169 52.2524 18.8536 52.3191 18.9269C52.3857 19.0002 52.4191 19.1302 52.4191 19.3169C52.4124 19.7902 52.2691 20.2236 51.9891 20.6169C51.7091 21.0102 51.3191 21.3236 50.8191 21.5569C50.3257 21.7902 49.7624 21.9069 49.1291 21.9069C48.1624 21.9069 47.4091 21.6702 46.8691 21.1969C46.3357 20.7236 46.0691 20.0069 46.0691 19.0469V13.8469C46.0691 13.6669 46.0357 13.5369 45.9691 13.4569C45.9024 13.3702 45.7924 13.3002 45.6391 13.2469ZM48.2991 13.2969V12.1469H51.7691C51.9424 12.1469 52.0791 12.1836 52.1791 12.2569C52.2791 12.3302 52.3291 12.4336 52.3291 12.5669C52.3291 12.7736 52.2291 12.9469 52.0291 13.0869C51.8291 13.2269 51.4991 13.2969 51.0391 13.2969H48.2991ZM59.4617 20.3669V20.1469L59.2117 20.1269V13.8869C59.2117 13.5269 59.1184 13.2436 58.9317 13.0369C58.7451 12.8302 58.4884 12.7269 58.1617 12.7269C57.8751 12.7269 57.6451 12.7936 57.4717 12.9269C57.2984 13.0536 57.2117 13.2136 57.2117 13.4069V14.3869C57.2117 14.8669 57.0484 15.2402 56.7217 15.5069C56.4017 15.7669 55.9484 15.8969 55.3617 15.8969C54.8551 15.8969 54.4751 15.7836 54.2217 15.5569C53.9751 15.3302 53.8517 15.0169 53.8517 14.6169C53.8517 14.1902 54.0351 13.7702 54.4017 13.3569C54.7684 12.9369 55.3184 12.5902 56.0517 12.3169C56.7851 12.0369 57.6984 11.8969 58.7917 11.8969C60.1051 11.8969 61.0817 12.1502 61.7217 12.6569C62.3617 13.1569 62.6817 13.8436 62.6817 14.7169V19.7069C62.6817 19.8669 62.7151 19.9936 62.7817 20.0869C62.8551 20.1736 62.9584 20.2169 63.0917 20.2169C63.2184 20.2169 63.3184 20.1836 63.3917 20.1169C63.4651 20.0502 63.5284 19.9802 63.5817 19.9069C63.6284 19.8669 63.6717 19.8302 63.7117 19.7969C63.7517 19.7636 63.8017 19.7469 63.8617 19.7469C63.9617 19.7469 64.0317 19.7836 64.0717 19.8569C64.1117 19.9236 64.1317 20.0102 64.1317 20.1169C64.1317 20.3702 64.0384 20.6369 63.8517 20.9169C63.6717 21.1969 63.3984 21.4369 63.0317 21.6369C62.6717 21.8302 62.2217 21.9269 61.6817 21.9269C61.0151 21.9269 60.4784 21.7836 60.0717 21.4969C59.6651 21.2102 59.4617 20.8336 59.4617 20.3669ZM53.4517 19.5569C53.4517 18.6902 53.8384 18.0002 54.6117 17.4869C55.3917 16.9669 56.4917 16.7069 57.9117 16.7069C58.3184 16.7069 58.6784 16.7402 58.9917 16.8069C59.3117 16.8669 59.5817 16.9536 59.8017 17.0669L59.5317 17.7869C59.3451 17.6936 59.1617 17.6236 58.9817 17.5769C58.8017 17.5302 58.6051 17.5069 58.3917 17.5069C57.9584 17.5069 57.6151 17.6336 57.3617 17.8869C57.1151 18.1402 56.9917 18.5002 56.9917 18.9669C56.9917 19.4336 57.1051 19.7902 57.3317 20.0369C57.5584 20.2836 57.8517 20.4069 58.2117 20.4069C58.4851 20.4069 58.7451 20.3436 58.9917 20.2169C59.2451 20.0902 59.4484 19.9236 59.6017 19.7169L59.8217 20.3769C59.4817 20.8702 59.0084 21.2536 58.4017 21.5269C57.7951 21.7936 57.1451 21.9269 56.4517 21.9269C55.5584 21.9269 54.8351 21.7069 54.2817 21.2669C53.7284 20.8202 53.4517 20.2502 53.4517 19.5569ZM69.0952 16.2969C69.0952 15.3102 69.2318 14.4902 69.5052 13.8369C69.7785 13.1769 70.1352 12.6869 70.5752 12.3669C71.0152 12.0402 71.4952 11.8769 72.0152 11.8769C72.6752 11.8769 73.1852 12.0736 73.5452 12.4669C73.9052 12.8536 74.0852 13.4269 74.0852 14.1869C74.0852 14.9136 73.9352 15.4536 73.6352 15.8069C73.3352 16.1602 72.9485 16.3369 72.4752 16.3369C72.0018 16.3369 71.6418 16.2136 71.3952 15.9669C71.1552 15.7136 71.0318 15.3636 71.0252 14.9169V14.5269C71.0185 14.3336 70.9752 14.1902 70.8952 14.0969C70.8152 13.9969 70.6852 13.9469 70.5052 13.9469C70.3252 13.9469 70.1552 14.0269 69.9952 14.1869C69.8352 14.3402 69.7052 14.5802 69.6052 14.9069C69.5118 15.2336 69.4652 15.6636 69.4652 16.1969L69.0952 16.2969ZM69.2552 12.6469L69.4652 14.8769V19.8669C69.4652 20.0736 69.4985 20.2236 69.5652 20.3169C69.6385 20.4102 69.7818 20.4736 69.9952 20.5069L70.8052 20.6569C70.9785 20.6902 71.1052 20.7469 71.1852 20.8269C71.2652 20.9069 71.3052 21.0236 71.3052 21.1769C71.3052 21.3302 71.2518 21.4502 71.1452 21.5369C71.0385 21.6236 70.8818 21.6669 70.6752 21.6669H65.5752C65.3618 21.6669 65.2052 21.6236 65.1052 21.5369C65.0052 21.4502 64.9552 21.3302 64.9552 21.1769C64.9552 21.0702 64.9852 20.9769 65.0452 20.8969C65.1052 20.8102 65.2018 20.7402 65.3352 20.6869L65.6552 20.5869C65.7618 20.5469 65.8385 20.4769 65.8852 20.3769C65.9385 20.2769 65.9652 20.1102 65.9652 19.8769V14.5869C65.9652 14.4069 65.9385 14.2769 65.8852 14.1969C65.8318 14.1169 65.7485 14.0636 65.6352 14.0369L65.2552 13.9869C65.1285 13.9469 65.0352 13.8936 64.9752 13.8269C64.9218 13.7536 64.8952 13.6636 64.8952 13.5569C64.8952 13.4236 64.9318 13.3169 65.0052 13.2369C65.0852 13.1569 65.2218 13.0836 65.4152 13.0169L67.4652 12.2669C67.8518 12.1136 68.1318 12.0169 68.3052 11.9769C68.4785 11.9302 68.6118 11.9069 68.7052 11.9069C68.8652 11.9069 68.9852 11.9636 69.0652 12.0769C69.1518 12.1902 69.2152 12.3802 69.2552 12.6469ZM75.4438 13.2469L75.0338 13.1069C74.8871 13.0536 74.7804 12.9869 74.7138 12.9069C74.6471 12.8269 74.6138 12.7336 74.6138 12.6269C74.6138 12.4736 74.6671 12.3569 74.7738 12.2769C74.8804 12.1902 75.0171 12.1469 75.1838 12.1469H75.7738C75.9138 12.1469 76.0371 12.1169 76.1438 12.0569C76.2504 11.9969 76.3704 11.8869 76.5038 11.7269L77.9238 10.1169C78.0904 9.9302 78.2504 9.79021 78.4038 9.69688C78.5571 9.60355 78.7071 9.55687 78.8538 9.55687C79.0138 9.55687 79.1404 9.61021 79.2338 9.71688C79.3271 9.82355 79.3738 9.97354 79.3738 10.1669V18.4469C79.3738 18.9336 79.4604 19.3036 79.6338 19.5569C79.8138 19.8036 80.0638 19.9269 80.3838 19.9269C80.6304 19.9269 80.8204 19.8736 80.9538 19.7669C81.0871 19.6602 81.1938 19.5369 81.2738 19.3969C81.3604 19.2502 81.4438 19.1202 81.5238 19.0069C81.6104 18.8936 81.7238 18.8302 81.8638 18.8169C81.9704 18.8169 82.0571 18.8536 82.1238 18.9269C82.1904 19.0002 82.2238 19.1302 82.2238 19.3169C82.2171 19.7902 82.0738 20.2236 81.7938 20.6169C81.5138 21.0102 81.1238 21.3236 80.6238 21.5569C80.1304 21.7902 79.5671 21.9069 78.9338 21.9069C77.9671 21.9069 77.2138 21.6702 76.6738 21.1969C76.1404 20.7236 75.8738 20.0069 75.8738 19.0469V13.8469C75.8738 13.6669 75.8404 13.5369 75.7738 13.4569C75.7071 13.3702 75.5971 13.3002 75.4438 13.2469ZM78.1038 13.2969V12.1469H81.5738C81.7471 12.1469 81.8838 12.1836 81.9838 12.2569C82.0838 12.3302 82.1338 12.4336 82.1338 12.5669C82.1338 12.7736 82.0338 12.9469 81.8338 13.0869C81.6338 13.2269 81.3038 13.2969 80.8438 13.2969H78.1038ZM87.7464 12.6369V19.8769C87.7464 20.1036 87.7697 20.2702 87.8164 20.3769C87.8631 20.4769 87.9431 20.5469 88.0564 20.5869L88.3564 20.6869C88.4964 20.7402 88.5964 20.8069 88.6564 20.8869C88.7164 20.9669 88.7464 21.0636 88.7464 21.1769C88.7464 21.3302 88.6964 21.4502 88.5964 21.5369C88.4964 21.6236 88.3364 21.6669 88.1164 21.6669H83.8564C83.6431 21.6669 83.4864 21.6236 83.3864 21.5369C83.2864 21.4502 83.2364 21.3302 83.2364 21.1769C83.2364 21.0702 83.2664 20.9769 83.3264 20.8969C83.3864 20.8102 83.4831 20.7402 83.6164 20.6869L83.9364 20.5869C84.0431 20.5469 84.1197 20.4769 84.1664 20.3769C84.2197 20.2769 84.2464 20.1102 84.2464 19.8769V14.5669C84.2464 14.3802 84.2197 14.2469 84.1664 14.1669C84.1131 14.0869 84.0297 14.0336 83.9164 14.0069L83.5364 13.9569C83.4097 13.9236 83.3164 13.8736 83.2564 13.8069C83.2031 13.7336 83.1764 13.6402 83.1764 13.5269C83.1764 13.4002 83.2131 13.3002 83.2864 13.2269C83.3597 13.1469 83.4964 13.0669 83.6964 12.9869L85.8064 12.2169C86.0997 12.0969 86.3331 12.0169 86.5064 11.9769C86.6797 11.9302 86.8331 11.9069 86.9664 11.9069C87.2264 11.9069 87.4197 11.9769 87.5464 12.1169C87.6797 12.2502 87.7464 12.4236 87.7464 12.6369ZM85.7864 10.7069C85.1464 10.7069 84.6397 10.5536 84.2664 10.2469C83.8931 9.93354 83.7064 9.51355 83.7064 8.98688C83.7064 8.47355 83.8931 8.06355 84.2664 7.75688C84.6397 7.45022 85.1464 7.29688 85.7864 7.29688C86.4197 7.29688 86.9231 7.45022 87.2964 7.75688C87.6764 8.06355 87.8664 8.47355 87.8664 8.98688C87.8664 9.51355 87.6764 9.93354 87.2964 10.2469C86.9231 10.5536 86.4197 10.7069 85.7864 10.7069ZM99.2675 14.7869C99.2675 15.2269 99.1075 15.6002 98.7875 15.9069C98.4675 16.2069 98.0408 16.3569 97.5075 16.3569C96.9875 16.3569 96.5942 16.2169 96.3275 15.9369C96.0608 15.6502 95.9275 15.2836 95.9275 14.8369V14.4869C95.9275 14.0469 95.8142 13.6969 95.5875 13.4369C95.3608 13.1702 95.0575 13.0369 94.6775 13.0369C94.3508 13.0369 94.0542 13.1469 93.7875 13.3669C93.5208 13.5802 93.3075 13.8969 93.1475 14.3169C92.9875 14.7302 92.9075 15.2402 92.9075 15.8469C92.9075 16.6536 93.0442 17.3336 93.3175 17.8869C93.5908 18.4336 93.9642 18.8502 94.4375 19.1369C94.9175 19.4169 95.4608 19.5569 96.0675 19.5569C96.5742 19.5569 97.0175 19.4702 97.3975 19.2969C97.7842 19.1236 98.1208 18.8536 98.4075 18.4869C98.5542 18.3402 98.6675 18.2436 98.7475 18.1969C98.8342 18.1436 98.9175 18.1169 98.9975 18.1169C99.1108 18.1169 99.1942 18.1736 99.2475 18.2869C99.3008 18.3936 99.3275 18.5236 99.3275 18.6769C99.3075 19.2636 99.1075 19.8036 98.7275 20.2969C98.3475 20.7902 97.8275 21.1869 97.1675 21.4869C96.5142 21.7802 95.7575 21.9269 94.8975 21.9269C93.9108 21.9269 93.0342 21.7302 92.2675 21.3369C91.5008 20.9369 90.8942 20.3802 90.4475 19.6669C90.0008 18.9469 89.7775 18.1069 89.7775 17.1469C89.7775 16.1402 89.9975 15.2402 90.4375 14.4469C90.8775 13.6536 91.4942 13.0269 92.2875 12.5669C93.0875 12.1069 94.0275 11.8769 95.1075 11.8769C95.9675 11.8769 96.7075 12.0102 97.3275 12.2769C97.9475 12.5369 98.4242 12.8869 98.7575 13.3269C99.0975 13.7669 99.2675 14.2536 99.2675 14.7869ZM106.001 11.8769C107.074 11.8769 108.014 12.0902 108.821 12.5169C109.634 12.9436 110.264 13.5369 110.711 14.2969C111.164 15.0502 111.391 15.9302 111.391 16.9369C111.391 17.8769 111.154 18.7236 110.681 19.4769C110.214 20.2302 109.567 20.8269 108.741 21.2669C107.914 21.7069 106.957 21.9269 105.871 21.9269C104.797 21.9269 103.857 21.7136 103.051 21.2869C102.244 20.8536 101.614 20.2602 101.161 19.5069C100.707 18.7469 100.481 17.8702 100.481 16.8769C100.481 15.9169 100.714 15.0636 101.181 14.3169C101.654 13.5636 102.304 12.9702 103.131 12.5369C103.957 12.0969 104.914 11.8769 106.001 11.8769ZM106.711 20.7269C107.064 20.6669 107.344 20.4769 107.551 20.1569C107.757 19.8302 107.874 19.3736 107.901 18.7869C107.934 18.1936 107.864 17.4636 107.691 16.5969C107.531 15.7436 107.324 15.0469 107.071 14.5069C106.817 13.9602 106.527 13.5669 106.201 13.3269C105.881 13.0869 105.534 13.0036 105.161 13.0769C104.807 13.1436 104.527 13.3402 104.321 13.6669C104.121 13.9869 104.007 14.4402 103.981 15.0269C103.954 15.6136 104.021 16.3436 104.181 17.2169C104.347 18.0569 104.557 18.7502 104.811 19.2969C105.064 19.8436 105.351 20.2369 105.671 20.4769C105.997 20.7102 106.344 20.7936 106.711 20.7269Z" fill="white"/>
</g>
<defs>
<clipPath id="clip0_2_628">
<rect width="112" height="29" fill="white"/>
</clipPath>
</defs>
</svg>
