<svg width="200" height="268" viewBox="0 0 200 268" fill="none" xmlns="http://www.w3.org/2000/svg">
<g clip-path="url(#clip0_2_387)">
<path fill-rule="evenodd" clip-rule="evenodd" d="M44.1871 0.170813C78.0255 2.16453 104.732 26.4855 127.291 51.8012C148.27 75.3446 164.992 103.423 164.297 134.958C163.615 165.908 144.498 191.606 123.704 214.527C101.473 239.033 77.2585 266.819 44.1871 267.358C10.8373 267.902 -15.2514 241.606 -37.9635 217.163C-59.6142 193.862 -76.7853 166.709 -78.8357 134.958C-81.0269 101.03 -72.2282 66.5001 -49.3148 41.3955C-25.4376 15.235 8.84238 -1.91172 44.1871 0.170813Z" fill="#1F3847"/>
<path d="M29.9416 56.2063C47.6414 54.959 47.8078 54.8759 47.8078 52.5475C47.8078 49.3044 39.9952 41.9864 37.669 43.0674C37.5858 43.1506 33.5146 43.4832 28.6948 43.8989C-0.722975 46.3104 -2.30274 46.976 4.42852 53.7948C8.33421 57.7031 8.99983 57.7031 29.9416 56.2063Z" fill="#DDF0A7"/>
<path d="M41.9065 80.9024C43.7346 84.977 50.8827 85.2272 78.6382 82.4C87.1975 81.4853 88.1938 78.4077 81.2962 73.8342C76.8091 70.8406 73.7352 70.6751 59.442 72.6709C43.5693 74.7497 39.912 76.4952 41.9065 80.9024Z" fill="#DDF0A7"/>
<path d="M125.923 108.343C125.923 102.107 116.448 100.111 98.6643 102.522C85.3684 104.351 81.8796 106.43 84.7049 110.838C88.6929 116.742 125.923 114.58 125.923 108.343Z" fill="#DDF0A7"/>
<path d="M111.38 51.3002C115.619 47.8077 108.305 40.1571 101.159 40.5729C99.9122 40.6561 94.3446 40.9887 88.6107 41.4045C69.4977 42.735 66.4227 44.232 71.3258 50.0529C74.4829 53.7117 107.225 54.7928 111.38 51.3002Z" fill="#DDF0A7"/>
<path d="M61.9346 112.668C61.9346 109.175 52.2117 104.685 46.4778 105.433C46.0629 105.516 42.7384 105.849 39.0822 106.264C20.1352 108.26 14.0688 112.668 22.7113 118.322C27.6144 121.482 61.9346 116.576 61.9346 112.668Z" fill="#DDF0A7"/>
<path d="M157.501 76.4957C157.501 71.0074 147.861 68.1802 134.648 69.677C119.856 71.4232 114.621 73.6692 117.031 77.4112C120.106 81.9847 157.501 81.1524 157.501 76.4957Z" fill="#DDF0A7"/>
<path d="M68.9154 149.423C74.8988 148.924 83.7067 148.342 88.3602 148.009C97.7513 147.427 99.1645 146.18 94.3446 142.604C90.2725 139.611 63.6806 138.28 54.9549 140.692C41.243 144.517 51.2155 150.753 68.9154 149.423Z" fill="#DDF0A7"/>
<path d="M1.76984 142.355C-15.1 145.099 -20.8343 148.84 -14.3524 152.998C-8.3691 156.74 27.9461 150.919 25.1207 146.678C21.7962 141.69 14.5674 140.276 1.76984 142.355Z" fill="#DDF0A7"/>
<path d="M7.08842 88.9686C7.08842 86.474 3.68124 83.1486 0.772694 82.6497C-4.04726 81.8182 -33.548 82.1507 -37.2875 83.0655C-46.6779 85.3107 -37.8694 95.7042 -31.72 95.2053C-31.3044 95.1221 7.08842 92.4611 7.08842 88.9686Z" fill="#DDF0A7"/>
<path d="M148.028 207.548C142.958 208.629 143.456 212.704 149.357 217.027C151.351 218.525 180.353 215.864 182.181 213.951C187.168 209.045 162.57 204.389 148.028 207.548Z" fill="#DDF0A7"/>
<path d="M198.053 107.181C194.73 104.022 166.31 100.944 164.648 103.521C163.069 106.1 165.644 112.503 181.766 112.17C198.719 111.92 202.375 111.339 198.053 107.181Z" fill="#DDF0A7"/>
<path d="M169.3 136.7C167.639 135.204 137.058 134.788 127.418 136.202C119.191 137.448 116.948 140.193 122.183 142.689C125.425 144.268 131.739 143.104 164.397 140.61C171.129 140.027 172.126 139.278 169.3 136.7Z" fill="#DDF0A7"/>
<path d="M134.981 171.958C132.571 171.126 117.945 170.878 110.965 171.626C95.1755 173.205 90.522 175.617 94.7596 179.858C97.4196 182.519 100.41 182.519 119.275 179.774C127.253 178.611 135.064 177.696 136.56 177.696C140.715 177.696 139.635 173.538 134.981 171.958Z" fill="#DDF0A7"/>
<path d="M66.3396 179.276C61.5197 178.444 36.9213 178.527 32.8501 179.276C21.8804 181.437 33.4315 190.501 38.0849 189.753C47.3097 188.256 66.1732 186.011 70.079 186.011C77.1429 186.011 74.1512 180.606 66.3396 179.276Z" fill="#DDF0A7"/>
<path d="M105.312 214.035C102.82 211.789 77.3083 209.46 71.1594 210.958C62.7655 213.037 68.9143 221.601 78.0559 220.603C85.5348 219.771 95.6726 218.525 101.989 218.441C107.307 218.441 108.47 216.862 105.312 214.035Z" fill="#DDF0A7"/>
</g>
<defs>
<clipPath id="clip0_2_387">
<rect width="280" height="268" fill="white" transform="translate(-80)"/>
</clipPath>
</defs>
</svg>
