<svg width="280" height="142" viewBox="0 0 280 142" fill="none" xmlns="http://www.w3.org/2000/svg">
<path fill-rule="evenodd" clip-rule="evenodd" d="M164.272 114.937C128.591 115.196 87.9264 125.479 62.2887 100.758C36.5015 75.8946 40.1945 34.7003 44.2131 -0.824013C47.7083 -31.7202 61.4527 -59.2834 82.944 -81.832C105.135 -105.115 132.173 -123.877 164.272 -126.789C199.4 -129.976 238.548 -124.403 261.896 -98.0658C284.518 -72.547 275.439 -34.8634 275.935 -0.824013C276.444 34.0752 289.052 74.1163 264.775 99.2847C240.352 124.603 199.52 114.681 164.272 114.937Z" fill="#1F3847"/>
<path d="M76.4089 136.308C56.2404 136.803 54.689 116.404 71.1341 66.6452C76.4089 50.6351 71.9408 41.1158 60.2741 43.5883C52.6412 45.1955 45.6287 57.3722 39.0507 80.4903C33.4036 100.456 27.322 106.02 17.455 100.456C7.21557 94.646 6.34685 82.9629 14.4142 58.0517C15.6553 54.2815 17.2066 49.3988 17.8892 47.1735C28.1287 14.5984 57.1713 -8.89154 88.4479 -9.94187C103.652 -10.4364 87.6411 -13.5893 72.6234 -11.2404C44.5738 -6.7899 17.0826 19.5425 7.58798 51.2522C-4.76131 92.6057 -1.03798 105.463 23.3504 105.524C36.9408 105.586 38.3681 103.98 47.7387 77.6479C58.8468 46.4941 66.9762 36.7889 65.549 56.4455C65.1766 61.1433 50.0348 100.024 50.0348 115.91C50.0348 133.898 64.1216 145.272 80.3805 140.388C87.2067 138.286 85.0348 136.061 76.4089 136.308Z" fill="#DDF0A7"/>
<path d="M153.98 16.3908C139.893 0.195711 111.098 -14.2696 100.921 -10.2512C96.7016 -8.58275 97.3841 -6.60373 102.225 -6.60373C111.657 -6.60373 129.654 2.8532 140.265 13.3614C169.122 41.9804 170.611 94.0895 143.679 128.087C138.342 134.824 124.875 139.955 120.718 124.502C117.863 113.746 120.655 104.845 125.868 92.5436C135.052 71.0326 134.122 61.3898 122.704 61.3898C114.016 61.3898 111.161 65.3458 100.921 91.6782C92.6679 112.881 86.5862 127.469 84.9107 130.002C81.0632 135.752 87.9515 135.629 92.2954 129.818C94.9639 126.233 101.666 112.2 103.59 106.205C107.81 93.1618 111.595 78.4502 118.608 69.1782C122.207 64.3568 125.062 64.1719 124.193 70.8477C123.634 74.9274 121.462 80.9228 117.243 90.3807C104.211 119.371 108.058 137.914 127.42 139.151C142.375 140.078 152.367 133.34 160.62 114.859C178.244 75.2982 173.218 38.5199 153.98 16.3908Z" fill="#DDF0A7"/>
</svg>
