<svg width="122" height="92" viewBox="0 0 122 92" fill="none" xmlns="http://www.w3.org/2000/svg">
<path d="M17.9427 12.0439C26.2644 17.8621 33.9457 16.3168 43.3647 6.77133C50.9549 -0.865036 56.5332 -1.41067 63.5746 4.77114C74.9141 14.6802 83.3273 16.3164 91.0088 10.0437C99.7878 2.86187 101.342 1.95242 105.092 1.95242C109.389 1.95242 111.767 3.13442 114.785 6.67987C122.833 16.1344 131.428 16.4981 141.762 7.58896C152.096 -1.32013 165.264 1.31641 156.211 10.4982C144.688 22.1346 126.49 25.2257 111.767 17.953L105.183 14.6797L99.422 17.589C88.8141 23.0435 68.0556 21.4979 58.2707 14.6797L55.8017 12.953L51.4122 16.0433C37.3293 25.9524 0.567749 23.2255 0.567749 12.3164C0.567749 7.77096 11.5413 7.58933 17.9427 12.0439Z" fill="#E2E8EB"/>
<path d="M42.4502 42.2266C49.1259 37.1357 53.0581 34.7713 66.2265 42.7711C78.572 50.2257 82.5957 50.0438 95.3983 41.4075C102.897 36.3167 105.823 36.4073 116.98 41.9529C129.874 48.4075 139.75 48.4075 143.774 41.9529C146.975 36.8618 160.6 36.4987 160.6 41.5893C160.6 51.9529 130.239 57.9529 113.871 50.7711L105.915 47.3166L101.525 50.0438C89.82 57.1347 72.5365 57.4075 59.0938 50.5893L54.3383 48.1357L47.1141 51.4075C29.6477 59.3166 9.34642 59.1357 1.75631 50.8629C-2.08446 46.5902 7.97471 44.9529 16.2049 48.4075C23.4292 51.4984 33.3055 49.2266 42.4502 42.2266Z" fill="#E2E8EB"/>
<path d="M120.821 72.681C137.098 80.0446 142.768 79.8619 151.73 72.0437C163.709 61.4983 176.238 65.2256 165.081 75.9528C153.285 87.4074 132.343 88.9528 113.962 79.6801L109.481 77.4074L103.72 80.5892C92.1064 86.9528 76.6519 88.2256 64.1235 83.8619L59.0023 82.0437L54.2472 85.0437C41.1703 93.3165 20.686 94.1346 9.52944 86.8619C-0.163949 80.4983 8.98085 76.4074 20.3203 81.9528C26.1729 84.8619 30.471 85.3174 35.5006 83.5901C38.3355 82.5901 40.3471 81.4074 49.3089 74.8619C53.6069 71.771 61.2885 72.0437 68.3299 75.4983C79.1209 80.9528 88.2656 79.5892 98.9649 70.9528C103.903 67.1346 109.389 67.4992 120.821 72.681Z" fill="#E2E8EB"/>
</svg>
