<svg width="170" height="81" viewBox="0 0 170 81" fill="none" xmlns="http://www.w3.org/2000/svg">
<path d="M74.9763 75.3559C55.016 75.8463 53.4806 55.6179 69.7559 6.27293C74.9763 -9.60327 70.5543 -19.0432 59.0081 -16.5913C51.4539 -14.9975 44.5138 -2.92237 38.0037 20.0031C32.4149 39.802 26.3961 45.3198 16.6309 39.803C6.49721 34.041 5.63744 22.455 13.6215 -2.24809C14.8498 -5.98727 16.385 -10.8292 17.0606 -13.036C27.1945 -45.3401 55.9373 -68.6337 86.891 -69.6758C101.938 -70.1662 86.0926 -73.2921 71.2299 -70.9628C43.4698 -66.5494 16.2624 -40.4368 6.86577 -8.99088C-5.35606 32.0176 -1.67114 44.7676 22.4654 44.8284C35.9156 44.8902 37.3282 43.2975 46.602 17.184C57.5955 -13.7102 65.641 -23.334 64.2284 -3.84125C63.8599 0.817406 48.8744 39.3744 48.8744 55.1275C48.8744 72.9657 62.8159 84.2446 78.9069 79.4015C85.6627 77.3174 83.5131 75.1107 74.9763 75.3559Z" fill="#162E3C"/>
<path d="M151.746 -43.5625C137.805 -59.6228 109.308 -73.967 99.2357 -69.9826C95.0593 -68.3275 95.7348 -66.3657 100.525 -66.3657C109.86 -66.3657 127.671 -56.9873 138.174 -46.5667C166.732 -18.1857 168.206 33.4886 141.551 67.2025C136.269 73.8835 122.942 78.9718 118.827 63.6473C116.002 52.9814 118.766 44.1545 123.925 31.9557C133.015 10.6244 132.093 1.06191 120.792 1.06191C112.194 1.06191 109.369 4.985 99.2357 31.0975C91.0673 52.1232 85.0485 66.5896 83.3903 69.1023C79.5825 74.8035 86.3996 74.6819 90.6987 68.9199C93.3396 65.3646 99.9727 51.4484 101.876 45.503C106.052 32.5686 109.799 17.9802 116.739 8.78548C120.301 4.00423 123.126 3.82033 122.266 10.4405C121.714 14.4862 119.564 20.4321 115.388 29.8107C102.49 58.559 106.298 76.9485 125.46 78.1744C140.262 79.0944 150.149 72.4124 158.318 54.0848C175.76 14.854 170.785 -21.6178 151.746 -43.5625Z" fill="#162E3C"/>
</svg>
